<?xml version="1.0" encoding="UTF-8" standalone="no"?>
<!DOCTYPE svg PUBLIC "-//W3C//DTD SVG 1.1//EN" "http://www.w3.org/Graphics/SVG/1.1/DTD/svg11.dtd">
<svg width="100%" height="100%" viewBox="0 0 512 512" version="1.1" xmlns="http://www.w3.org/2000/svg" xmlns:xlink="http://www.w3.org/1999/xlink" xml:space="preserve" xmlns:serif="http://www.serif.com/" style="fill-rule:evenodd;clip-rule:evenodd;stroke-linejoin:round;stroke-miterlimit:2;">
    <path d="M256,32C378.883,32 480,133.117 480,256C480,378.883 378.883,480 256,480C133.117,480 32,378.883 32,256C32,133.117 133.117,32 256,32ZM256,512C396.437,512 512,396.437 512,256C512,115.563 396.437,0 256,0C115.563,0 -0,115.563 0,256C0,396.437 115.563,512 256,512ZM328.7,256L208,329.7L208,182.2L328.7,256ZM212.5,147.5C205.1,143 195.8,142.8 188.2,147C180.6,151.2 175.9,159.3 175.9,167.9L175.9,343.9C175.9,352.6 180.6,360.6 188.2,364.8C195.8,369 205,368.9 212.5,364.3L356.5,276.3C363.6,271.9 368,264.2 368,255.8C368,247.4 363.6,239.7 356.5,235.3L212.5,147.3L212.5,147.5Z" style="fill:white;fill-rule:nonzero;"/>
</svg>
